#N canvas -7 0 665 665 10;
#X msg 96 76 RX 512;
#X obj 122 108 unpack s i;
#X floatatom 179 130 5 0 0 0 - - -, f 5;
#X symbolatom 122 130 3 0 0 0 - - -, f 3;
#X obj 96 209 print RX;
#X obj 96 177 route RX RY RSW LX LY LSW ESW, f 71;
#X obj 156 209 print RY;
#X obj 216 209 print RSW;
#X obj 277 209 print LX;
#X obj 337 209 print LY;
#X obj 398 209 print LSW;
#X obj 519 209 print unknown_message;
#X obj 458 209 print ESW;
#X connect 0 0 5 0;
#X connect 1 0 3 0;
#X connect 1 1 2 0;
#X connect 5 0 4 0;
#X connect 5 1 6 0;
#X connect 5 2 7 0;
#X connect 5 3 8 0;
#X connect 5 4 9 0;
#X connect 5 5 10 0;
#X connect 5 6 12 0;
#X connect 5 7 11 0;
